HIERARCHY
ROOT hip
{
	OFFSET 0.000000 0.000000 0.000000
	CHANNELS 6 Xposition Yposition Zposition Xrotation Zrotation Yrotation 
	JOINT abdomen
	{
		OFFSET 0.000000 3.422050 0.000000
		CHANNELS 3 Xrotation Zrotation Yrotation 
		JOINT chest
		{
			OFFSET 0.000000 8.486693 -0.684411
			CHANNELS 3 Xrotation Zrotation Yrotation 
			JOINT neck
			{
				OFFSET 0.000000 10.266162 -0.273764
				CHANNELS 3 Xrotation Zrotation Yrotation 
				JOINT head
				{
					OFFSET 0.000000 3.148285 0.000000
					CHANNELS 3 Xrotation Zrotation Yrotation 
					End Site
					{
						OFFSET 0.000000 3.148289 0.000000
					}
				}
			}
			JOINT lCollar
			{
				OFFSET 3.422053 6.707223 -0.821293
				CHANNELS 3 Yrotation Zrotation Xrotation 
				JOINT lShldr
				{
					OFFSET 3.285171 0.000000 0.000000
					CHANNELS 3 Zrotation Yrotation Xrotation 
					JOINT lForeArm
					{
						OFFSET 10.129278 0.000000 0.000000
						CHANNELS 3 Yrotation Zrotation Xrotation 
						JOINT lHand
						{
							OFFSET 8.486692 0.000000 0.000000
							CHANNELS 3 Zrotation Yrotation Xrotation 
							End Site
							{
								OFFSET 4.106464 0.000000 0.000000
							}
						}
					}
				}
			}
			JOINT rCollar
			{
				OFFSET -3.558935 6.707223 -0.821293
				CHANNELS 3 Yrotation Zrotation Xrotation 
				JOINT rShldr
				{
					OFFSET -3.148289 0.000000 0.000000
					CHANNELS 3 Zrotation Yrotation Xrotation 
					JOINT rForeArm
					{
						OFFSET -10.266159 0.000000 0.000000
						CHANNELS 3 Yrotation Zrotation Xrotation 
						JOINT rHand
						{
							OFFSET -8.349810 0.000000 0.000000
							CHANNELS 3 Zrotation Yrotation Xrotation 
							End Site
							{
								OFFSET -4.106464 0.000000 0.000000
							}
						}
					}
				}
			}
		}
	}
	JOINT lThigh
	{
		OFFSET 5.338403 -1.642589 1.368821
		CHANNELS 3 Xrotation Zrotation Yrotation 
		JOINT lShin
		{
			OFFSET -2.053232 -20.121670 0.000000
			CHANNELS 3 Xrotation Zrotation Yrotation 
			JOINT lFoot
			{
				OFFSET 0.000000 -19.300380 -1.231939
				CHANNELS 3 Xrotation Yrotation Zrotation 
				End Site
				{
					OFFSET 0.000000 -2.463878 4.653993
				}
			}
		}
	}
	JOINT rThigh
	{
		OFFSET -5.338403 -1.642589 1.368821
		CHANNELS 3 Xrotation Zrotation Yrotation 
		JOINT rShin
		{
			OFFSET 2.053232 -20.121670 0.000000
			CHANNELS 3 Xrotation Zrotation Yrotation 
			JOINT rFoot
			{
				OFFSET 0.000000 -19.300380 -1.231939
				CHANNELS 3 Xrotation Yrotation Zrotation 
				End Site
				{
					OFFSET 0.000000 -2.463878 4.653993
				}
			}
		}
	}
}
MOTION
Frames: 6
Frame Time: 0.033264
0.000000 43.528500 0.000000 0.000000 0.000000 0.000000 0.000000 0.000000 0.000000 0.000000 0.000000 0.000000 0.000000 0.000000 0.000000 0.000000 0.000000 0.000000 0.000000 0.000000 0.000000 0.000000 0.000000 0.000000 0.000000 0.000000 0.000000 0.000000 0.000000 0.000000 0.000000 0.000000 0.000000 0.000000 0.000000 0.000000 0.000000 0.000000 0.000000 0.000000 0.000000 0.000000 0.000000 0.000000 0.000000 0.000000 0.000000 0.000000 0.000000 0.000000 0.000000 0.000000 0.000000 0.000000 0.000000 0.000000 0.000000 0.000000 0.000000 0.000000 
-3.499359 15.788982 22.386879 106.994835 -0.000001 0.000001 -6.975626 -0.070502 -0.323288 -32.782768 -0.685539 -1.692178 -15.001697 0.000000 0.000000 -0.792102 0.000000 0.000000 -40.782871 1.661931 -5.196096 4.325796 -12.548170 -0.664168 -26.580894 27.688213 -2.266512 16.248224 -9.776907 -5.475046 41.952293 -1.661436 -5.615709 -4.514287 12.939586 -0.552694 27.245691 -23.206768 -0.511366 -15.580379 8.536068 -4.959458 -59.491234 1.235354 1.890308 45.351318 0.311727 -2.229254 12.481055 0.978998 4.972963 -59.495251 -1.236717 -1.885487 45.339413 -0.332448 2.197788 12.492043 -0.967474 -4.991782 
-3.498692 15.630117 22.451626 105.615242 -0.000001 0.000001 -7.364318 -0.070455 -0.323348 -29.725096 -0.685392 -1.692122 -15.888219 0.000000 0.000000 -1.579826 0.000000 0.000000 -40.396767 2.449459 -5.583348 4.325796 -12.548170 -0.664168 -26.859152 27.910837 -2.140820 16.598402 -9.318663 -5.909887 41.535648 -2.424009 -6.015740 -4.514287 12.939586 -0.552694 27.565081 -23.425871 -0.388960 -15.926381 8.061576 -5.394901 -57.648273 1.198125 1.807124 45.077892 0.259346 -2.231754 12.481055 0.978998 4.972963 -57.652424 -1.201648 -1.802056 45.317982 -0.328428 2.198053 12.492043 -0.967474 -4.991782 
-3.498024 15.471252 22.516373 104.232407 -0.000001 0.000001 -7.753079 -0.070407 -0.323408 -26.630136 -0.685247 -1.692058 -16.775600 0.000000 0.000000 -2.368148 0.000000 0.000000 -40.004620 3.235214 -5.976612 4.325796 -12.548171 -0.664168 -27.138565 28.132935 -2.013625 16.944798 -8.857554 -6.341575 41.112953 -3.184476 -6.422028 -4.514288 12.939587 -0.552694 27.885559 -23.644375 -0.264999 -16.268545 7.584221 -5.827208 -55.797428 1.163448 1.722425 44.804436 0.206948 -2.234004 12.481055 0.978998 4.972963 -55.801758 -1.169148 -1.717180 45.296528 -0.324408 2.198316 12.492043 -0.967474 -4.991782 
-3.497357 15.312387 22.581118 102.846718 -0.000001 0.000001 -8.141906 -0.070360 -0.323468 -23.501810 -0.685104 -1.691986 -17.663723 0.000000 0.000000 -3.156994 0.000000 0.000000 -39.606354 4.019006 -6.375990 4.325797 -12.548171 -0.664168 -27.419151 28.354507 -1.884920 17.287418 -8.393656 -6.770124 40.684090 -3.942641 -6.834667 -4.514287 12.939586 -0.552694 28.207144 -23.862274 -0.139477 -16.606873 7.104075 -6.256392 -53.939659 1.131411 1.636328 44.530949 0.154536 -2.236003 12.481055 0.978998 4.972963 -53.944126 -1.139300 -1.630976 45.275089 -0.320388 2.198578 12.492044 -0.967474 -4.991782 
-3.496689 15.153522 22.645864 101.458572 -0.000001 0.000001 -8.530783 -0.070314 -0.323528 -20.344303 -0.684964 -1.691905 -18.552492 0.000000 0.000000 -3.946289 0.000000 0.000000 -39.201862 4.800641 -6.781589 4.325796 -12.548168 -0.664168 -27.700920 28.575548 -1.754701 17.626280 -7.927047 -7.195550 40.248966 -4.698306 -7.253751 -4.514287 12.939584 -0.552694 28.529825 -24.079544 -0.012390 -16.941387 6.621225 -6.682474 -52.075874 1.102092 1.548957 44.257450 0.102111 -2.237752 12.481054 0.978998 4.972963 -52.080513 -1.112178 -1.543569 45.253654 -0.316368 2.198838 12.492043 -0.967474 -4.991781 
